# xmcd
#
# Track frame offsets: 
#        182
#        17117
#        33392
#
# Disc length: 769 seconds
#
# Revision: 0
# Processed by: cddbd v1.5.2PL0 Copyright (c) Steve Scherf et al.
# Submitted via: ExactAudioCopy v0.99pb3
#
DISCID=1b02ff03
DTITLE=The Mavericks - I've Got This Feeling (MCA MCD 49074)
DYEAR=1998
DGENRE=Country
TTITLE0=I've Got This Feeling
TTITLE1=I've Got This Feeling (Live)
TTITLE2=Save A Prayer (Live)
EXTD=
EXTT0=
EXTT1=
EXTT2=
PLAYORDER=
